<?xml version="1.0" encoding="UTF-8"?>
<svg xmlns="http://www.w3.org/2000/svg" xmlns:xlink="http://www.w3.org/1999/xlink" width="16px" height="16px" viewBox="0 0 16 16" version="1.1">
<defs>
<filter id="alpha" filterUnits="objectBoundingBox" x="0%" y="0%" width="100%" height="100%">
  <feColorMatrix type="matrix" in="SourceGraphic" values="0 0 0 0 1 0 0 0 0 1 0 0 0 0 1 0 0 0 1 0"/>
</filter>
<mask id="mask0">
  <g filter="url(#alpha)">
<rect x="0" y="0" width="16" height="16" style="fill:rgb(0%,0%,0%);fill-opacity:0.0784314;stroke:none;"/>
  </g>
</mask>
<linearGradient id="linear0" gradientUnits="userSpaceOnUse" x1="32.251034" y1="6.131708" x2="32.251034" y2="90.238609" gradientTransform="matrix(0.170635,0,0,-0.168651,-0.190476,16.345238)">
<stop offset="0" style="stop-color:rgb(0%,0%,0%);stop-opacity:1;"/>
<stop offset="1" style="stop-color:rgb(0%,0%,0%);stop-opacity:0.588235;"/>
</linearGradient>
<clipPath id="clip1">
  <rect x="0" y="0" width="16" height="16"/>
</clipPath>
<g id="surface5" clip-path="url(#clip1)">
<path style=" stroke:none;fill-rule:nonzero;fill:url(#linear0);" d="M 2 0.660156 C 1.082031 0.660156 0.328125 1.414062 0.328125 2.332031 L 0.328125 14.167969 C 0.328125 15.085938 1.082031 15.839844 2 15.839844 L 14 15.839844 C 14.917969 15.839844 15.671875 15.085938 15.671875 14.167969 L 15.671875 2.332031 C 15.671875 1.414062 14.917969 0.660156 14 0.660156 Z M 2 1 L 14 1 C 14.554688 1 15 1.445312 15 2 L 15 14 C 15 14.554688 14.554688 15 14 15 L 2 15 C 1.445312 15 1 14.554688 1 14 L 1 2 C 1 1.445312 1.445312 1 2 1 Z M 2 1 "/>
</g>
<mask id="mask1">
  <g filter="url(#alpha)">
<rect x="0" y="0" width="16" height="16" style="fill:rgb(0%,0%,0%);fill-opacity:0.101961;stroke:none;"/>
  </g>
</mask>
<linearGradient id="linear1" gradientUnits="userSpaceOnUse" x1="32.251034" y1="6.131708" x2="32.251034" y2="90.238609" gradientTransform="matrix(0.170635,0,0,-0.168651,-0.190476,16.345238)">
<stop offset="0" style="stop-color:rgb(0%,0%,0%);stop-opacity:1;"/>
<stop offset="1" style="stop-color:rgb(0%,0%,0%);stop-opacity:0.588235;"/>
</linearGradient>
<clipPath id="clip2">
  <rect x="0" y="0" width="16" height="16"/>
</clipPath>
<g id="surface8" clip-path="url(#clip2)">
<path style=" stroke:none;fill-rule:nonzero;fill:url(#linear1);" d="M 2 0.828125 C 1.171875 0.828125 0.496094 1.503906 0.496094 2.332031 L 0.496094 14.167969 C 0.496094 14.996094 1.171875 15.671875 2 15.671875 L 14 15.671875 C 14.828125 15.671875 15.503906 14.996094 15.503906 14.167969 L 15.503906 2.332031 C 15.503906 1.503906 14.828125 0.828125 14 0.828125 Z M 2 1 L 14 1 C 14.554688 1 15 1.445312 15 2 L 15 14 C 15 14.554688 14.554688 15 14 15 L 2 15 C 1.445312 15 1 14.554688 1 14 L 1 2 C 1 1.445312 1.445312 1 2 1 Z M 2 1 "/>
</g>
<mask id="mask2">
  <g filter="url(#alpha)">
<rect x="0" y="0" width="16" height="16" style="fill:rgb(0%,0%,0%);fill-opacity:0.2;stroke:none;"/>
  </g>
</mask>
<linearGradient id="linear2" gradientUnits="userSpaceOnUse" x1="32.251034" y1="6.131708" x2="32.251034" y2="90.238609" gradientTransform="matrix(0.170635,0,0,-0.168651,-0.190476,16.345238)">
<stop offset="0" style="stop-color:rgb(0%,0%,0%);stop-opacity:1;"/>
<stop offset="1" style="stop-color:rgb(0%,0%,0%);stop-opacity:0.588235;"/>
</linearGradient>
<clipPath id="clip3">
  <rect x="0" y="0" width="16" height="16"/>
</clipPath>
<g id="surface11" clip-path="url(#clip3)">
<path style=" stroke:none;fill-rule:nonzero;fill:url(#linear2);" d="M 1.863281 1.003906 C 1.191406 1.074219 0.667969 1.644531 0.667969 2.332031 L 0.667969 14.167969 C 0.667969 14.902344 1.265625 15.5 2 15.5 L 14 15.5 C 14.734375 15.5 15.332031 14.902344 15.332031 14.167969 L 15.332031 2.332031 C 15.332031 1.632812 14.789062 1.058594 14.105469 1.003906 C 14.609375 1.054688 15 1.480469 15 2 L 15 14 C 15 14.554688 14.554688 15 14 15 L 2 15 C 1.445312 15 1 14.554688 1 14 L 1 2 C 1 1.480469 1.390625 1.054688 1.894531 1.003906 C 1.886719 1.007812 1.875 1.003906 1.863281 1.003906 Z M 1.863281 1.003906 "/>
</g>
<mask id="mask3">
  <g filter="url(#alpha)">
<rect x="0" y="0" width="16" height="16" style="fill:rgb(0%,0%,0%);fill-opacity:0.301961;stroke:none;"/>
  </g>
</mask>
<linearGradient id="linear3" gradientUnits="userSpaceOnUse" x1="32.251034" y1="6.131708" x2="32.251034" y2="90.238609" gradientTransform="matrix(0.170635,0,0,-0.168651,-0.190476,16.345238)">
<stop offset="0" style="stop-color:rgb(0%,0%,0%);stop-opacity:1;"/>
<stop offset="1" style="stop-color:rgb(0%,0%,0%);stop-opacity:0.588235;"/>
</linearGradient>
<clipPath id="clip4">
  <rect x="0" y="0" width="16" height="16"/>
</clipPath>
<g id="surface14" clip-path="url(#clip4)">
<path style=" stroke:none;fill-rule:nonzero;fill:url(#linear3);" d="M 1.074219 1.625 C 0.921875 1.820312 0.832031 2.066406 0.832031 2.332031 L 0.832031 14.167969 C 0.832031 14.8125 1.355469 15.332031 2 15.332031 L 14 15.332031 C 14.644531 15.332031 15.167969 14.8125 15.167969 14.167969 L 15.167969 2.332031 C 15.167969 2.066406 15.078125 1.820312 14.925781 1.625 C 14.972656 1.742188 15 1.867188 15 2 L 15 14 C 15 14.554688 14.554688 15 14 15 L 2 15 C 1.445312 15 1 14.554688 1 14 L 1 2 C 1 1.867188 1.027344 1.742188 1.074219 1.625 Z M 1.074219 1.625 "/>
</g>
<mask id="mask4">
  <g filter="url(#alpha)">
<rect x="0" y="0" width="16" height="16" style="fill:rgb(0%,0%,0%);fill-opacity:0.45098;stroke:none;"/>
  </g>
</mask>
<linearGradient id="linear4" gradientUnits="userSpaceOnUse" x1="32.251034" y1="6.131708" x2="32.251034" y2="90.238609" gradientTransform="matrix(0.166667,0,0,-0.166667,0,16.166667)">
<stop offset="0" style="stop-color:rgb(0%,0%,0%);stop-opacity:1;"/>
<stop offset="1" style="stop-color:rgb(0%,0%,0%);stop-opacity:0.588235;"/>
</linearGradient>
<clipPath id="clip5">
  <rect x="0" y="0" width="16" height="16"/>
</clipPath>
<g id="surface17" clip-path="url(#clip5)">
<path style=" stroke:none;fill-rule:nonzero;fill:url(#linear4);" d="M 1 14 L 1 14.167969 C 1 14.71875 1.445312 15.167969 2 15.167969 L 14 15.167969 C 14.554688 15.167969 15 14.71875 15 14.167969 L 15 14 C 15 14.554688 14.554688 15 14 15 L 2 15 C 1.445312 15 1 14.554688 1 14 Z M 1 14 "/>
</g>
<mask id="mask5">
  <g filter="url(#alpha)">
<rect x="0" y="0" width="16" height="16" style="fill:rgb(0%,0%,0%);fill-opacity:0.6;stroke:none;"/>
  </g>
</mask>
<clipPath id="clip6">
  <rect x="0" y="0" width="16" height="16"/>
</clipPath>
<g id="surface20" clip-path="url(#clip6)">
<path style=" stroke:none;fill-rule:nonzero;fill:rgb(0%,0%,0%);fill-opacity:1;" d="M 2 1 L 14 1 C 14.550781 1 15 1.449219 15 2 L 15 14 C 15 14.550781 14.550781 15 14 15 L 2 15 C 1.449219 15 1 14.550781 1 14 L 1 2 C 1 1.449219 1.449219 1 2 1 Z M 2 1 "/>
</g>
<mask id="mask6">
  <g filter="url(#alpha)">
<rect x="0" y="0" width="16" height="16" style="fill:rgb(0%,0%,0%);fill-opacity:0.0117647;stroke:none;"/>
  </g>
</mask>
<linearGradient id="linear5" gradientUnits="userSpaceOnUse" x1="36.357143" y1="6" x2="36.357143" y2="63.893143" gradientTransform="matrix(0.166667,0,0,0.166667,0,0)">
<stop offset="0" style="stop-color:rgb(100%,100%,100%);stop-opacity:1;"/>
<stop offset="1" style="stop-color:rgb(100%,100%,100%);stop-opacity:0;"/>
</linearGradient>
<clipPath id="clip7">
  <rect x="0" y="0" width="16" height="16"/>
</clipPath>
<g id="surface23" clip-path="url(#clip7)">
<path style=" stroke:none;fill-rule:nonzero;fill:url(#linear5);" d="M 2 1 C 1.445312 1 1 1.445312 1 2 L 1 14 C 1 14.054688 1.007812 14.109375 1.015625 14.160156 C 1.023438 14.210938 1.03125 14.261719 1.046875 14.308594 C 1.046875 14.3125 1.050781 14.316406 1.050781 14.324219 C 1.070312 14.371094 1.089844 14.414062 1.113281 14.457031 C 1.140625 14.503906 1.167969 14.546875 1.199219 14.589844 C 1.230469 14.628906 1.261719 14.667969 1.296875 14.703125 C 1.371094 14.773438 1.453125 14.839844 1.546875 14.886719 C 1.59375 14.910156 1.640625 14.925781 1.691406 14.941406 C 1.648438 14.925781 1.613281 14.902344 1.574219 14.878906 C 1.570312 14.878906 1.570312 14.882812 1.566406 14.878906 C 1.5625 14.878906 1.558594 14.875 1.550781 14.871094 C 1.53125 14.855469 1.511719 14.84375 1.496094 14.828125 C 1.476562 14.816406 1.460938 14.800781 1.441406 14.785156 C 1.414062 14.757812 1.386719 14.730469 1.359375 14.699219 C 1.339844 14.675781 1.324219 14.652344 1.308594 14.628906 C 1.304688 14.625 1.300781 14.617188 1.296875 14.609375 C 1.285156 14.59375 1.273438 14.574219 1.265625 14.558594 C 1.25 14.523438 1.230469 14.488281 1.21875 14.453125 C 1.21875 14.449219 1.214844 14.445312 1.214844 14.441406 C 1.207031 14.425781 1.207031 14.410156 1.203125 14.394531 C 1.199219 14.378906 1.191406 14.363281 1.1875 14.34375 C 1.175781 14.285156 1.167969 14.226562 1.167969 14.167969 L 1.167969 2.167969 C 1.167969 1.703125 1.535156 1.332031 2 1.332031 L 14 1.332031 C 14.464844 1.332031 14.832031 1.703125 14.832031 2.167969 L 14.832031 14.167969 C 14.832031 14.226562 14.824219 14.285156 14.8125 14.34375 C 14.804688 14.378906 14.796875 14.410156 14.785156 14.441406 C 14.785156 14.445312 14.78125 14.449219 14.78125 14.453125 C 14.769531 14.480469 14.757812 14.515625 14.746094 14.542969 C 14.738281 14.554688 14.730469 14.570312 14.722656 14.582031 C 14.714844 14.597656 14.703125 14.613281 14.691406 14.628906 C 14.675781 14.652344 14.660156 14.675781 14.640625 14.699219 C 14.617188 14.726562 14.589844 14.753906 14.5625 14.78125 C 14.5625 14.78125 14.558594 14.785156 14.558594 14.785156 C 14.535156 14.808594 14.511719 14.824219 14.484375 14.84375 C 14.46875 14.855469 14.449219 14.871094 14.433594 14.878906 C 14.429688 14.882812 14.429688 14.878906 14.425781 14.878906 C 14.386719 14.902344 14.351562 14.925781 14.308594 14.941406 C 14.359375 14.925781 14.40625 14.910156 14.453125 14.886719 C 14.546875 14.839844 14.628906 14.773438 14.703125 14.703125 C 14.738281 14.667969 14.769531 14.628906 14.800781 14.589844 C 14.832031 14.546875 14.859375 14.503906 14.886719 14.457031 C 14.910156 14.414062 14.929688 14.371094 14.949219 14.324219 C 14.949219 14.316406 14.953125 14.3125 14.953125 14.308594 C 14.96875 14.261719 14.976562 14.210938 14.984375 14.160156 C 14.992188 14.109375 15 14.054688 15 14 L 15 2 C 15 1.445312 14.554688 1 14 1 Z M 2 1 "/>
</g>
<mask id="mask7">
  <g filter="url(#alpha)">
<rect x="0" y="0" width="16" height="16" style="fill:rgb(0%,0%,0%);fill-opacity:0.14902;stroke:none;"/>
  </g>
</mask>
<radialGradient id="radial0" gradientUnits="userSpaceOnUse" cx="48" cy="90.171875" fx="48" fy="90.171875" r="42" gradientTransform="matrix(0.192885,0,0,0.165985,-1.258504,0.0328553)">
<stop offset="0" style="stop-color:rgb(100%,100%,100%);stop-opacity:1;"/>
<stop offset="1" style="stop-color:rgb(100%,100%,100%);stop-opacity:0;"/>
</radialGradient>
<clipPath id="clip8">
  <rect x="0" y="0" width="16" height="16"/>
</clipPath>
<g id="surface26" clip-path="url(#clip8)">
<path style=" stroke:none;fill-rule:nonzero;fill:url(#radial0);" d="M 2 15 C 1.445312 15 1 14.554688 1 14 L 1 2 C 1 1.945312 1.007812 1.890625 1.015625 1.839844 C 1.023438 1.789062 1.03125 1.738281 1.046875 1.691406 C 1.046875 1.6875 1.050781 1.683594 1.050781 1.675781 C 1.070312 1.628906 1.089844 1.585938 1.113281 1.542969 C 1.140625 1.496094 1.167969 1.453125 1.199219 1.410156 C 1.230469 1.371094 1.261719 1.332031 1.296875 1.296875 C 1.371094 1.226562 1.453125 1.160156 1.546875 1.113281 C 1.59375 1.089844 1.640625 1.074219 1.691406 1.058594 C 1.648438 1.074219 1.613281 1.097656 1.574219 1.121094 C 1.570312 1.121094 1.570312 1.117188 1.566406 1.121094 C 1.5625 1.121094 1.558594 1.125 1.550781 1.128906 C 1.53125 1.144531 1.511719 1.15625 1.496094 1.171875 C 1.476562 1.183594 1.460938 1.199219 1.441406 1.214844 C 1.414062 1.242188 1.386719 1.269531 1.359375 1.300781 C 1.339844 1.324219 1.324219 1.347656 1.308594 1.371094 C 1.304688 1.375 1.300781 1.382812 1.296875 1.390625 C 1.285156 1.40625 1.273438 1.425781 1.265625 1.441406 C 1.25 1.476562 1.230469 1.511719 1.21875 1.546875 C 1.21875 1.550781 1.214844 1.554688 1.214844 1.558594 C 1.207031 1.574219 1.207031 1.589844 1.203125 1.605469 C 1.199219 1.621094 1.191406 1.636719 1.1875 1.65625 C 1.175781 1.714844 1.167969 1.773438 1.167969 1.832031 L 1.167969 13.832031 C 1.167969 14.296875 1.535156 14.667969 2 14.667969 L 14 14.667969 C 14.464844 14.667969 14.832031 14.296875 14.832031 13.832031 L 14.832031 1.832031 C 14.832031 1.773438 14.824219 1.714844 14.8125 1.65625 C 14.804688 1.621094 14.796875 1.589844 14.785156 1.558594 C 14.785156 1.554688 14.78125 1.550781 14.78125 1.546875 C 14.769531 1.519531 14.757812 1.484375 14.746094 1.457031 C 14.738281 1.445312 14.730469 1.429688 14.722656 1.417969 C 14.714844 1.402344 14.703125 1.386719 14.691406 1.371094 C 14.675781 1.347656 14.660156 1.324219 14.640625 1.300781 C 14.617188 1.273438 14.589844 1.246094 14.5625 1.21875 C 14.5625 1.21875 14.558594 1.214844 14.558594 1.214844 C 14.535156 1.191406 14.511719 1.175781 14.484375 1.15625 C 14.46875 1.144531 14.449219 1.128906 14.433594 1.121094 C 14.429688 1.117188 14.429688 1.121094 14.425781 1.121094 C 14.386719 1.097656 14.351562 1.074219 14.308594 1.058594 C 14.359375 1.074219 14.40625 1.089844 14.453125 1.113281 C 14.546875 1.160156 14.628906 1.226562 14.703125 1.296875 C 14.738281 1.332031 14.769531 1.371094 14.800781 1.410156 C 14.832031 1.453125 14.859375 1.496094 14.886719 1.542969 C 14.910156 1.585938 14.929688 1.628906 14.949219 1.675781 C 14.949219 1.683594 14.953125 1.6875 14.953125 1.691406 C 14.96875 1.738281 14.976562 1.789062 14.984375 1.839844 C 14.992188 1.890625 15 1.945312 15 2 L 15 14 C 15 14.554688 14.554688 15 14 15 Z M 2 15 "/>
</g>
<mask id="mask8">
  <g filter="url(#alpha)">
<rect x="0" y="0" width="16" height="16" style="fill:rgb(0%,0%,0%);fill-opacity:0.101961;stroke:none;"/>
  </g>
</mask>
<clipPath id="clip9">
  <rect x="0" y="0" width="16" height="16"/>
</clipPath>
<g id="surface29" clip-path="url(#clip9)">
<path style=" stroke:none;fill-rule:nonzero;fill:rgb(0%,0%,0%);fill-opacity:1;" d="M 6.3125 12.828125 C 6.0625 12.808594 5.984375 12.539062 6.015625 12.328125 C 6.015625 11.601562 6.015625 10.875 6.015625 10.148438 C 5.59375 10.136719 5.164062 10.167969 4.746094 10.132812 C 4.492188 10.074219 4.429688 9.738281 4.601562 9.558594 C 5.535156 8.09375 6.464844 6.628906 7.394531 5.164062 C 6.585938 5.160156 5.777344 5.171875 4.96875 5.15625 C 4.710938 5.144531 4.636719 4.859375 4.667969 4.644531 C 4.679688 4.332031 4.636719 4.011719 4.691406 3.703125 C 4.820312 3.414062 5.171875 3.515625 5.417969 3.496094 C 7.289062 3.5 9.160156 3.488281 11.03125 3.5 C 11.289062 3.515625 11.363281 3.800781 11.332031 4.015625 C 11.320312 4.328125 11.363281 4.648438 11.308594 4.953125 C 11.179688 5.246094 10.828125 5.144531 10.582031 5.164062 C 9.921875 5.164062 9.261719 5.164062 8.605469 5.164062 C 9.558594 6.667969 10.523438 8.167969 11.46875 9.679688 C 11.585938 9.917969 11.351562 10.191406 11.097656 10.148438 C 10.730469 10.148438 10.367188 10.148438 10 10.148438 C 9.996094 10.941406 10.007812 11.734375 9.996094 12.527344 C 9.980469 12.789062 9.695312 12.859375 9.480469 12.828125 C 8.425781 12.828125 7.367188 12.828125 6.3125 12.828125 Z M 6.3125 12.828125 "/>
</g>
<mask id="mask9">
  <g filter="url(#alpha)">
<rect x="0" y="0" width="16" height="16" style="fill:rgb(0%,0%,0%);fill-opacity:0.14902;stroke:none;"/>
  </g>
</mask>
<clipPath id="clip10">
  <rect x="0" y="0" width="16" height="16"/>
</clipPath>
<g id="surface32" clip-path="url(#clip10)">
<path style=" stroke:none;fill-rule:nonzero;fill:rgb(0%,0%,0%);fill-opacity:1;" d="M 6.332031 12.667969 C 6.246094 12.660156 6.183594 12.585938 6.183594 12.5 L 6.183594 9.984375 L 4.832031 9.984375 C 4.773438 9.984375 4.71875 9.949219 4.6875 9.898438 C 4.660156 9.84375 4.660156 9.78125 4.691406 9.730469 L 7.699219 5 L 5 5 C 4.90625 5 4.832031 4.925781 4.832031 4.832031 L 4.832031 3.832031 C 4.832031 3.742188 4.90625 3.667969 5 3.667969 L 11 3.667969 C 11.09375 3.667969 11.167969 3.742188 11.167969 3.832031 L 11.167969 4.832031 C 11.167969 4.925781 11.09375 5 11 5 L 8.300781 5 L 11.308594 9.730469 C 11.339844 9.78125 11.339844 9.84375 11.3125 9.898438 C 11.28125 9.949219 11.226562 9.984375 11.167969 9.984375 L 9.832031 9.984375 L 9.832031 12.5 C 9.832031 12.59375 9.757812 12.667969 9.667969 12.667969 Z M 6.332031 12.667969 "/>
</g>
<mask id="mask10">
  <g filter="url(#alpha)">
<rect x="0" y="0" width="16" height="16" style="fill:rgb(0%,0%,0%);fill-opacity:0.301961;stroke:none;"/>
  </g>
</mask>
<clipPath id="clip11">
  <rect x="0" y="0" width="16" height="16"/>
</clipPath>
<g id="surface35" clip-path="url(#clip11)">
<path style=" stroke:none;fill-rule:nonzero;fill:rgb(0%,0%,0%);fill-opacity:1;" d="M 6.347656 12.5 L 6.347656 9.816406 L 4.832031 9.816406 L 8 4.832031 L 11.167969 9.816406 L 9.667969 9.816406 L 9.667969 12.5 Z M 8 4.832031 L 5 4.832031 L 5 3.832031 L 11 3.832031 L 11 4.832031 Z M 8 4.832031 "/>
</g>
<linearGradient id="linear6" gradientUnits="userSpaceOnUse" x1="12.534358" y1="3.102583" x2="12.533442" y2="17.831676" gradientTransform="matrix(0.465388,0,0,0.537187,2.5,2.666667)">
<stop offset="0" style="stop-color:rgb(94.117647%,94.117647%,94.117647%);stop-opacity:1;"/>
<stop offset="1" style="stop-color:rgb(66.666667%,66.666667%,66.666667%);stop-opacity:1;"/>
</linearGradient>
<mask id="mask11">
  <g filter="url(#alpha)">
<rect x="0" y="0" width="16" height="16" style="fill:rgb(0%,0%,0%);fill-opacity:0.14902;stroke:none;"/>
  </g>
</mask>
<clipPath id="clip12">
  <rect x="0" y="0" width="16" height="16"/>
</clipPath>
<g id="surface38" clip-path="url(#clip12)">
<path style=" stroke:none;fill-rule:nonzero;fill:rgb(0%,0%,0%);fill-opacity:1;" d="M 6.347656 12.332031 L 6.347656 12.167969 L 9.667969 12.167969 L 9.667969 12.332031 Z M 4.832031 9.652344 L 4.9375 9.484375 L 6.347656 9.484375 L 6.347656 9.652344 Z M 9.667969 9.652344 L 9.667969 9.484375 L 11.0625 9.484375 L 11.167969 9.652344 Z M 5 4.667969 L 5 4.5 L 8 4.5 L 7.894531 4.667969 Z M 8 4.5 L 11 4.5 L 11 4.667969 L 8.105469 4.667969 Z M 8 4.5 "/>
</g>
<mask id="mask12">
  <g filter="url(#alpha)">
<rect x="0" y="0" width="16" height="16" style="fill:rgb(0%,0%,0%);fill-opacity:0.74902;stroke:none;"/>
  </g>
</mask>
<clipPath id="clip13">
  <rect x="0" y="0" width="16" height="16"/>
</clipPath>
<g id="surface41" clip-path="url(#clip13)">
<path style=" stroke:none;fill-rule:nonzero;fill:rgb(100%,100%,100%);fill-opacity:1;" d="M 4.832031 9.652344 L 7.894531 4.832031 L 8 4.832031 L 4.9375 9.652344 Z M 8 4.832031 L 8.105469 4.832031 L 11.167969 9.652344 L 11.0625 9.652344 Z M 5 3.832031 L 5 3.667969 L 11 3.667969 L 11 3.832031 Z M 5 3.832031 "/>
</g>
</defs>
<g id="surface1">
<use xlink:href="#surface5" mask="url(#mask0)"/>
<use xlink:href="#surface8" mask="url(#mask1)"/>
<use xlink:href="#surface11" mask="url(#mask2)"/>
<use xlink:href="#surface14" mask="url(#mask3)"/>
<use xlink:href="#surface17" mask="url(#mask4)"/>
<use xlink:href="#surface20" mask="url(#mask5)"/>
<use xlink:href="#surface23" mask="url(#mask6)"/>
<use xlink:href="#surface26" mask="url(#mask7)"/>
<use xlink:href="#surface29" mask="url(#mask8)"/>
<use xlink:href="#surface32" mask="url(#mask9)"/>
<use xlink:href="#surface35" mask="url(#mask10)"/>
<path style=" stroke:none;fill-rule:nonzero;fill:url(#linear6);" d="M 6.347656 12.332031 L 6.347656 9.652344 L 4.832031 9.652344 L 8 4.667969 L 11.167969 9.652344 L 9.667969 9.652344 L 9.667969 12.332031 Z M 8 4.667969 L 5 4.667969 L 5 3.667969 L 11 3.667969 L 11 4.667969 Z M 8 4.667969 "/>
<use xlink:href="#surface38" mask="url(#mask11)"/>
<use xlink:href="#surface41" mask="url(#mask12)"/>
</g>
</svg>
